<?xml version="1.0" encoding="UTF-8" standalone="no"?>
<!-- Created by sK1 2.0rc4 (https://sk1project.net/) -->

<svg
   xmlns:dc="http://purl.org/dc/elements/1.1/"
   xmlns:cc="http://creativecommons.org/ns#"
   xmlns:rdf="http://www.w3.org/1999/02/22-rdf-syntax-ns#"
   xmlns:svg="http://www.w3.org/2000/svg"
   xmlns="http://www.w3.org/2000/svg"
   xmlns:sodipodi="http://sodipodi.sourceforge.net/DTD/sodipodi-0.dtd"
   xmlns:inkscape="http://www.inkscape.org/namespaces/inkscape"
   height="640.0px"
   width="640.0px"
   version="1.1"
   id="5d1df7a2-bfa4-11e9-9644-d4258bf813e9"
   sodipodi:docname="numpoly_logo.svg"
   inkscape:version="0.92.4 5da689c313, 2019-01-14">
  <metadata
     id="metadata69">
    <rdf:RDF>
      <cc:Work
         rdf:about="">
        <dc:format>image/svg+xml</dc:format>
        <dc:type
           rdf:resource="http://purl.org/dc/dcmitype/StillImage" />
        <dc:title></dc:title>
      </cc:Work>
    </rdf:RDF>
  </metadata>
  <defs
     id="defs67" />
  <sodipodi:namedview
     pagecolor="#ffffff"
     bordercolor="#666666"
     borderopacity="1"
     objecttolerance="10"
     gridtolerance="10"
     guidetolerance="10"
     inkscape:pageopacity="0"
     inkscape:pageshadow="2"
     inkscape:window-width="2520"
     inkscape:window-height="1364"
     id="namedview65"
     showgrid="false"
     inkscape:zoom="1.475"
     inkscape:cx="114.6017"
     inkscape:cy="364.96394"
     inkscape:window-x="20"
     inkscape:window-y="56"
     inkscape:window-maximized="0"
     inkscape:current-layer="5d1df7a2-bfa4-11e9-9644-d4258bf813e9" />
  <g
     id="g5069"
     transform="matrix(1.3100754,0.31038315,-0.31038315,1.3100754,-15.837935,-198.26355)">
    <path
       style="opacity:1;vector-effect:none;fill:none;fill-opacity:1;stroke:#aa4400;stroke-width:11.6595192;stroke-linecap:round;stroke-linejoin:round;stroke-miterlimit:4;stroke-dasharray:none;stroke-dashoffset:200;stroke-opacity:1"
       d="m 498.66564,234.58262 c -4.3634,245.59337 -136.07137,146.80022 -136.07137,146.80022 v 0 0"
       id="path192-4"
       inkscape:connector-curvature="0"
       sodipodi:nodetypes="cccc" />
    <path
       style="opacity:1;vector-effect:none;fill:none;fill-opacity:1;stroke:#803300;stroke-width:15;stroke-linecap:round;stroke-linejoin:round;stroke-miterlimit:4;stroke-dasharray:none;stroke-dashoffset:200;stroke-opacity:1"
       d="M 480.32648,197.28749 C 482.1952,498.71345 344.25512,344.08771 344.25512,344.08771 v 0 0"
       id="path192-3-4"
       inkscape:connector-curvature="0"
       sodipodi:nodetypes="cccc" />
    <path
       style="opacity:1;vector-effect:none;fill:none;fill-opacity:1;stroke:#aa4400;stroke-width:11.6595192;stroke-linecap:round;stroke-linejoin:round;stroke-miterlimit:4;stroke-dasharray:none;stroke-dashoffset:200;stroke-opacity:1"
       d="M 146.50074,307.59126 C 150.86414,61.997892 282.57209,160.79105 282.57209,160.79105 v 0 0"
       id="path192-4-9"
       inkscape:connector-curvature="0"
       sodipodi:nodetypes="cccc" />
    <path
       style="opacity:1;vector-effect:none;fill:none;fill-opacity:1;stroke:#803300;stroke-width:15;stroke-linecap:round;stroke-linejoin:round;stroke-miterlimit:4;stroke-dasharray:none;stroke-dashoffset:200;stroke-opacity:1"
       d="M 164.8399,344.88639 C 162.97118,43.460427 300.91124,198.08617 300.91124,198.08617 v 0 0"
       id="path192-3-4-6"
       inkscape:connector-curvature="0"
       sodipodi:nodetypes="cccc" />
    <path
       style="opacity:1;vector-effect:none;fill:none;fill-opacity:1;stroke:#552200;stroke-width:22;stroke-linecap:round;stroke-linejoin:round;stroke-miterlimit:4;stroke-dasharray:none;stroke-dashoffset:200;stroke-opacity:1"
       d="m 456.65454,120.99289 c 22.0033,431.79205 -136.07136,146.80022 -136.07136,146.80022 l 4,6.58766 v 0"
       id="path192-3-0-4"
       inkscape:connector-curvature="0"
       sodipodi:nodetypes="cccc" />
    <path
       style="opacity:1;vector-effect:none;fill:none;fill-opacity:1;stroke:#552200;stroke-width:22;stroke-linecap:round;stroke-linejoin:round;stroke-miterlimit:4;stroke-dasharray:none;stroke-dashoffset:200;stroke-opacity:1"
       d="M 188.51183,421.47962 C 166.50854,-10.312428 324.58318,274.67939 324.58318,274.67939 l -4,-6.58765 v 0"
       id="path192-3-0-4-2"
       inkscape:connector-curvature="0"
       sodipodi:nodetypes="cccc" />
  </g>
  <flowRoot
     xml:space="preserve"
     id="flowRoot4921"
     style="font-style:normal;font-weight:normal;font-size:40px;line-height:1.25;font-family:'Noto Sans Thai';letter-spacing:0px;word-spacing:0px;fill:#000000;fill-opacity:1;stroke:none;-inkscape-font-specification:'Noto Sans Thai';font-stretch:normal;font-variant:normal;"><flowRegion
       id="flowRegion4923"
       style="-inkscape-font-specification:'Noto Sans Thai';font-family:'Noto Sans Thai';font-weight:normal;font-style:normal;font-stretch:normal;font-variant:normal;"><rect
         id="rect4925"
         width="412.27921"
         height="131.35408"
         x="171.6232"
         y="508.64594"
         style="-inkscape-font-specification:'Noto Sans Thai';font-family:'Noto Sans Thai';font-weight:normal;font-style:normal;font-stretch:normal;font-variant:normal;" /></flowRegion><flowPara
       id="flowPara4927"
       style="-inkscape-font-specification:'Noto Sans Thai';font-family:'Noto Sans Thai';font-weight:normal;font-style:normal;font-stretch:normal;font-variant:normal;font-size:96px;">numpoly</flowPara></flowRoot>  <g
     id="g4986"
     transform="matrix(1.3096485,0,0,1.3096485,-92.486973,-167.86866)">
    <path
       d="m 145.32022,505.92993 q 3.24267,-0.93866 8.36267,-1.70666 5.12,-0.85334 10.752,-0.85334 5.71733,0 9.472,1.536 3.84,1.45067 6.05867,4.18134 2.21867,2.73066 3.15733,6.48533 0.93867,3.75467 0.93867,8.36267 v 25.344 h -12.71467 v -23.808 q 0,-6.144 -1.62133,-8.704 -1.62134,-2.56 -6.05867,-2.56 -1.36533,0 -2.90133,0.17066 -1.536,0.0853 -2.73067,0.256 v 34.64534 h -12.71467 z"
       style="font-style:normal;font-variant:normal;font-weight:bold;font-stretch:normal;font-size:85.33333588px;line-height:1.25;font-family:Ubuntu;-inkscape-font-specification:'Ubuntu Bold';letter-spacing:0px;word-spacing:0px;fill:#552200;fill-opacity:1;stroke:none"
       id="path4937"
       inkscape:connector-curvature="0" />
    <path
       d="m 233.89612,547.74327 q -3.24266,0.93867 -8.36266,1.70667 -5.12,0.85333 -10.752,0.85333 -5.71734,0 -9.55734,-1.536 -3.75467,-1.536 -5.97333,-4.26667 -2.21867,-2.816 -3.15734,-6.656 -0.93866,-3.84 -0.93866,-8.448 v -25.00267 h 12.71466 v 23.46667 q 0,6.144 1.62134,8.87467 1.62133,2.73067 6.05867,2.73067 1.36533,0 2.90133,-0.0853 1.536,-0.17066 2.73067,-0.34133 v -34.64534 h 12.71466 z"
       style="font-style:normal;font-variant:normal;font-weight:bold;font-stretch:normal;font-size:85.33333588px;line-height:1.25;font-family:Ubuntu;-inkscape-font-specification:'Ubuntu Bold';letter-spacing:0px;word-spacing:0px;fill:#552200;fill-opacity:1;stroke:none"
       id="path4939"
       inkscape:connector-curvature="0" />
    <path
       d="m 270.50402,525.47127 q 0,-6.144 -1.62133,-8.704 -1.536,-2.56 -5.376,-2.56 -1.19467,0 -2.47467,0.17066 -1.28,0.0853 -2.47467,0.256 v 34.64534 h -12.71466 v -43.34934 q 1.62133,-0.42666 3.75466,-0.85333 2.21867,-0.512 4.608,-0.85333 2.47467,-0.42667 5.03467,-0.59734 2.56,-0.256 5.03467,-0.256 4.864,0 7.85066,1.28 3.072,1.19467 5.03467,2.90134 2.73067,-1.96267 6.22933,-3.072 3.584,-1.10934 6.57067,-1.10934 5.376,0 8.78933,1.536 3.49867,1.45067 5.54667,4.18134 2.048,2.73066 2.816,6.48533 0.768,3.75467 0.768,8.36267 v 25.344 h -12.71467 v -23.808 q 0,-6.144 -1.62133,-8.704 -1.536,-2.56 -5.376,-2.56 -1.024,0 -2.90133,0.512 -1.792,0.512 -2.98667,1.28 0.59733,1.96266 0.768,4.18133 0.17067,2.13333 0.17067,4.608 v 24.49067 h -12.71467 z"
       style="font-style:normal;font-variant:normal;font-weight:bold;font-stretch:normal;font-size:85.33333588px;line-height:1.25;font-family:Ubuntu;-inkscape-font-specification:'Ubuntu Bold';letter-spacing:0px;word-spacing:0px;fill:#552200;fill-opacity:1;stroke:none"
       id="path4941"
       inkscape:connector-curvature="0" />
    <path
       d="m 348.15732,527.17794 q 0,-5.88801 -2.64534,-9.38667 -2.64533,-3.584 -7.85066,-3.584 -1.70667,0 -3.15734,0.17066 -1.45066,0.0853 -2.38933,0.256 v 22.95467 q 1.19467,0.768 3.072,1.28 1.96267,0.512 3.92533,0.512 9.04534,0 9.04534,-12.20266 z m 12.97066,-0.34134 q 0,5.20534 -1.28,9.472 -1.28,4.26667 -3.75466,7.33867 -2.47467,3.072 -6.144,4.77867 -3.66934,1.70666 -8.448,1.70666 -2.64534,0 -4.94934,-0.512 -2.304,-0.512 -4.43733,-1.45066 v 16.896 h -12.71467 v -59.13601 q 1.70667,-0.512 3.92534,-0.93866 2.21866,-0.512 4.608,-0.85334 2.47466,-0.34133 4.94933,-0.512 2.56,-0.256 4.864,-0.256 5.54667,0 9.89867,1.70667 4.352,1.62133 7.33866,4.69333 2.98667,2.98667 4.52267,7.33867 1.62133,4.352 1.62133,9.728 z"
       style="font-style:normal;font-variant:normal;font-weight:bold;font-stretch:normal;font-size:85.33333588px;line-height:1.25;font-family:Ubuntu;-inkscape-font-specification:'Ubuntu Bold';letter-spacing:0px;word-spacing:0px;fill:#803300;fill-opacity:1;stroke:none"
       id="path4943"
       inkscape:connector-curvature="0" />
    <path
       d="m 412.92517,526.75127 q 0,5.29067 -1.536,9.728 -1.536,4.352 -4.43734,7.50933 -2.90133,3.072 -6.99733,4.77867 -4.01067,1.70667 -9.04533,1.70667 -4.94934,0 -9.04534,-1.70667 -4.01066,-1.70667 -6.912,-4.77867 -2.90133,-3.15733 -4.52266,-7.50933 -1.62134,-4.43733 -1.62134,-9.728 0,-5.29067 1.62134,-9.64267 1.70666,-4.352 4.608,-7.424 2.98666,-3.072 6.99733,-4.77867 4.096,-1.70666 8.87467,-1.70666 4.864,0 8.87466,1.70666 4.096,1.70667 6.99734,4.77867 2.90133,3.072 4.52266,7.424 1.62134,4.352 1.62134,9.64267 z m -12.97067,0 q 0,-5.888 -2.38933,-9.216 -2.304,-3.41334 -6.656,-3.41334 -4.352,0 -6.74134,3.41334 -2.38933,3.328 -2.38933,9.216 0,5.888 2.38933,9.38667 2.38934,3.41333 6.74134,3.41333 4.352,0 6.656,-3.41333 2.38933,-3.49867 2.38933,-9.38667 z"
       style="font-style:normal;font-variant:normal;font-weight:bold;font-stretch:normal;font-size:85.33333588px;line-height:1.25;font-family:Ubuntu;-inkscape-font-specification:'Ubuntu Bold';letter-spacing:0px;word-spacing:0px;fill:#803300;fill-opacity:1;stroke:none"
       id="path4945"
       inkscape:connector-curvature="0" />
    <path
       d="m 440.65838,550.1326 q -5.54667,-0.0853 -9.04534,-1.19466 -3.41333,-1.10934 -5.46133,-3.072 -1.96267,-2.048 -2.73067,-4.864 -0.68266,-2.90134 -0.68266,-6.48534 v -49.408 l 12.71466,-2.048 v 48.896 q 0,1.70667 0.256,3.072 0.256,1.36534 0.93867,2.304 0.768,0.93867 2.13333,1.536 1.36534,0.59734 3.66934,0.768 z"
       style="font-style:normal;font-variant:normal;font-weight:bold;font-stretch:normal;font-size:85.33333588px;line-height:1.25;font-family:Ubuntu;-inkscape-font-specification:'Ubuntu Bold';letter-spacing:0px;word-spacing:0px;fill:#803300;fill-opacity:1;stroke:none"
       id="path4947"
       inkscape:connector-curvature="0" />
    <path
       d="m 488.61556,504.39393 q -3.84,12.97067 -8.02133,24.32001 -4.18133,11.34933 -9.13067,22.016 -1.792,3.84 -3.584,6.48533 -1.792,2.73067 -3.92533,4.43733 -2.13333,1.792 -4.864,2.56 -2.64533,0.85334 -6.22933,0.85334 -2.98667,0 -5.54667,-0.59734 -2.47467,-0.512 -4.096,-1.19466 l 2.21867,-10.15467 q 1.96266,0.68267 3.49866,0.93867 1.536,0.256 3.24267,0.256 3.41333,0 5.20533,-1.87734 1.87734,-1.792 3.15734,-5.03466 -4.352,-8.53334 -8.704,-19.11467 -4.352,-10.66667 -8.192,-23.89334 h 13.48266 q 0.85334,3.328 1.96267,7.25334 1.19467,3.84 2.47467,7.85066 1.28,3.92534 2.56,7.68001 1.36533,3.75466 2.56,6.82666 1.10933,-3.072 2.304,-6.82666 1.19466,-3.75467 2.304,-7.68001 1.19466,-4.01066 2.21866,-7.85066 1.10934,-3.92534 1.96267,-7.25334 z"
       style="font-style:normal;font-variant:normal;font-weight:bold;font-stretch:normal;font-size:85.33333588px;line-height:1.25;font-family:Ubuntu;-inkscape-font-specification:'Ubuntu Bold';letter-spacing:0px;word-spacing:0px;fill:#803300;fill-opacity:1;stroke:none"
       id="path4949"
       inkscape:connector-curvature="0" />
  </g>
</svg>
